<svg xmlns="http://www.w3.org/2000/svg" width="920" height="330" viewBox="0 0 920 330" role="img" aria-labelledby="title desc">
<title id="title">Flappy Commit — the midnight arcade. Click to play.</title><desc id="desc">A golden bird flying over a layered midnight city beneath a warm moon, with moving green copper gates.</desc>
<defs><linearGradient id="sky" x2="0" y2="1"><stop stop-color="#152339"/><stop offset="1" stop-color="#7c707e"/></linearGradient><linearGradient id="shade"><stop stop-color="#101c30"/><stop offset=".65" stop-color="#101c30" stop-opacity=".8"/><stop offset="1" stop-color="#101c30" stop-opacity="0"/></linearGradient><linearGradient id="copper"><stop stop-color="#355967"/><stop offset=".3" stop-color="#82a591"/><stop offset="1" stop-color="#355966"/></linearGradient><clipPath id="clip"><rect width="920" height="330" rx="15"/></clipPath></defs>
<style>text{font-family:Arial,Helvetica,sans-serif}.bird{animation:fly 1.6s ease-in-out infinite;transform-origin:590px 162px}.cloud{animation:drift 14s ease-in-out infinite alternate}.gates{animation:gates 9s linear infinite}@keyframes fly{50%{transform:translateY(-15px) rotate(-7deg)}}@keyframes drift{to{transform:translateX(-30px)}}@keyframes gates{to{transform:translateX(-130px)}}@media(prefers-reduced-motion:reduce){.bird,.cloud,.gates{animation:none}}</style>
<g clip-path="url(#clip)"><rect width="920" height="330" fill="url(#sky)"/>
<g fill="#ead9b7" opacity=".65"><circle cx="492" cy="40" r="1"/><circle cx="607" cy="64" r="1.5"/><circle cx="845" cy="31" r="1"/><circle cx="533" cy="99" r="1"/><circle cx="661" cy="28" r="1"/><circle cx="890" cy="104" r="1"/></g>
<circle cx="742" cy="78" r="53" fill="#efd6ab" opacity=".07"/><circle cx="742" cy="78" r="30" fill="#efd6ab"/><circle cx="732" cy="68" r="7" fill="#dbb98c" opacity=".45"/>
<g class="cloud" fill="#acbcc5" opacity=".14"><ellipse cx="650" cy="104" rx="57" ry="11"/><ellipse cx="628" cy="95" rx="24" ry="17"/><ellipse cx="887" cy="149" rx="70" ry="14"/></g>
<path d="M0 263V203h70v-43h50v67h48v-92h67v112h63v-76h75v45h75v-70h52v104h68v-63h67v42h40v-96h61v64h63v-32h61v51h65v-69h48v71h62v112H0Z" fill="#293d53"/>
<path d="M0 330V247h62v-41h44v79h77v-43h65v33h52v-87h45v90h52v-58h58v58h59v-71h46v65h68v-37h58v-67h51v118h72v-67h60v24h41v-38h55v74h45v61Z" fill="#1d2d41"/>
<g fill="#e4c796" opacity=".45"><path d="M534 223h4v7h-4zm13 0h4v7h-4zm-13 17h4v7h-4zm13 0h4v7h-4zM706 213h4v7h-4zm14 0h4v7h-4zm-14 18h4v7h-4zm14 0h4v7h-4zM814 238h4v7h-4zm14 0h4v7h-4zm-14 18h4v7h-4zm14 0h4v7h-4z"/></g>
<g class="gates"><path d="M868 0h50v100h-50zM868 243h50v87h-50z" fill="url(#copper)"/><path d="M862 96h62v18h-62zM862 232h62v18h-62z" fill="#759989" stroke="#2b4654" stroke-width="3"/><path d="M865 99h55M865 236h55" stroke="#c3d2a2" stroke-width="2"/></g>
<rect width="570" height="330" fill="url(#shade)"/>
<g class="bird"><path d="m568 164-15-10 4 18 17 3" fill="#ca895f" stroke="#2c2937" stroke-width="2"/><ellipse cx="589" cy="160" rx="23" ry="20" fill="#efd09c" stroke="#2c2937" stroke-width="2"/><path d="m582 141-3-10 9 7 6-8 3 12" fill="#e5bb7b"/><ellipse cx="602" cy="152" rx="8" ry="9" fill="#fff5df"/><ellipse cx="605" cy="153" rx="3" ry="4" fill="#262536"/><path d="m610 160 17 5-17 5" fill="#d5825d"/><path d="M581 159q-25-6-16 14t25-9" fill="#dca570" stroke="#2c2937" stroke-width="2"/></g>
<text x="36" y="50" fill="#dcc69f" font-size="11" letter-spacing="2.5">THE MIDNIGHT ARCADE / 01</text><text x="34" y="111" fill="#f5eee2" font-size="42" font-weight="700" letter-spacing="-1.5">Flappy Commit.</text><text x="36" y="147" fill="#b9c4d3" font-size="17">A little less scrolling. A little more flying.</text>
<rect x="36" y="211" width="183" height="46" rx="8" fill="#eacf9f"/><text x="61" y="240" fill="#19273a" font-size="15" font-weight="700">TAKE FLIGHT →</text><text x="36" y="295" fill="#a5b3c5" font-size="11">SPACE / CLICK / TAP</text>
</g><rect x=".5" y=".5" width="919" height="329" rx="15" fill="none" stroke="#415166"/></svg>
