<svg xmlns="http://www.w3.org/2000/svg" width="920" height="260" viewBox="0 0 920 260" role="img" aria-labelledby="title"><title id="title">GitHub activity and public repository languages</title>
<style>text{font-family:Arial,Helvetica,sans-serif}.mono{font-family:Consolas,monospace}.motion{animation:drift 5s ease-in-out infinite}@keyframes drift{50%{opacity:.45;transform:translateY(-3px)}}@media(prefers-reduced-motion:reduce){.motion{animation:none}}</style>
<rect x=".5" y=".5" width="919" height="259" rx="14" fill="#111a27" stroke="#344151"/><text x="24" y="32" font-size="12" fill="#d9c39d" class="mono">ON GITHUB</text><text x="896" y="32" text-anchor="end" font-size="11" fill="#9baabd">12 Sep 2026 UTC</text><text x="24" y="83" font-size="32" font-weight="700" fill="#f1ede5">2,355</text><text x="24" y="108" font-size="10" fill="#a9b6c6" class="mono">CONTRIBUTIONS · LAST YEAR</text><text x="249" y="83" font-size="32" font-weight="700" fill="#f1ede5">64</text><text x="249" y="108" font-size="10" fill="#a9b6c6" class="mono">PUBLIC REPOSITORIES</text><text x="474" y="83" font-size="32" font-weight="700" fill="#f1ede5">84</text><text x="474" y="108" font-size="10" fill="#a9b6c6" class="mono">MERGED PUBLIC PRS</text><text x="699" y="83" font-size="32" font-weight="700" fill="#f1ede5">20</text><text x="699" y="108" font-size="10" fill="#a9b6c6" class="mono">STARS · ORIGINAL REPOS</text><rect x="24.00" y="142" width="343.64" height="10" fill="#d8b98d"/><circle cx="28" cy="180" r="4" fill="#d8b98d"/><text x="41" y="184" font-size="13" fill="#c3ccd8">Jupyter Notebook · 39.4%</text><rect x="367.64" y="142" width="237.31" height="10" fill="#9abed0"/><circle cx="323" cy="180" r="4" fill="#9abed0"/><text x="336" y="184" font-size="13" fill="#c3ccd8">TypeScript · 27.2%</text><rect x="604.94" y="142" width="96.22" height="10" fill="#b5c79e"/><circle cx="618" cy="180" r="4" fill="#b5c79e"/><text x="631" y="184" font-size="13" fill="#c3ccd8">JavaScript · 11.0%</text><rect x="701.17" y="142" width="73.11" height="10" fill="#c9b0ce"/><circle cx="28" cy="206" r="4" fill="#c9b0ce"/><text x="41" y="210" font-size="13" fill="#c3ccd8">Python · 8.4%</text><rect x="774.28" y="142" width="68.05" height="10" fill="#cf9f91"/><circle cx="323" cy="206" r="4" fill="#cf9f91"/><text x="336" y="210" font-size="13" fill="#c3ccd8">HTML · 7.8%</text><rect x="842.33" y="142" width="53.67" height="10" fill="#546479"/><circle cx="618" cy="206" r="4" fill="#546479"/><text x="631" y="210" font-size="13" fill="#c3ccd8">Other · 6.2%</text><text x="24" y="240" font-size="11" fill="#91a1b4">Language share by bytes in original, non-archived public repositories.</text></svg>